<?xml version="1.0" encoding="utf-8"?>
<svg version="1.1" id="Layer_1" x="0px" y="0px" viewBox="0 0 780 248" style="enable-background:new 0 0 780 248;" xmlns="http://www.w3.org/2000/svg">
  <style type="text/css">
	.st0{fill-rule:evenodd;clip-rule:evenodd;fill:#fffff9;}
	.st1{fill-rule:evenodd;clip-rule:evenodd;fill:#001f82;}
	.st2{fill-rule:evenodd;clip-rule:evenodd;fill:#ffffff;}
	.st3{fill:#fffff9;}
	.st4{fill:#001f82;}
</style>
  <g>
    <path class="st0" d="M234.1,93.96c-2.34,0.18-4.7,0.46-7,0.46c-2.31,0-4.56-0.28-6.83-0.46l-12.19,62.79h34.94    c0.07-1.29,0.06-2.68,0.31-3.96c0.25-1.29,0.79-2.68,1.23-3.97c-6.39,0.65-13.34,1.29-21.36,1.29L234.1,93.96z" fill="#ffffff"/>
    <path class="st0" d="M248.43,157.21c2.34-0.18,4.7-0.46,7-0.46c2.3,0,4.56,0.28,6.83,0.46l12.28-63.25    c-2.34,0.18-4.7,0.46-7.01,0.46c-2.31,0-4.56-0.28-6.83-0.46L248.43,157.21z" fill="#ffffff"/>
    <path class="st0" d="M309.82,100.51c5.62,0,10.93,0.65,16.25,1.29c0.07-1.29,0.04-2.58,0.3-3.96c0.25-1.29,0.78-2.58,1.22-3.88    h-47.48c-0.07,1.29-0.04,2.58-0.29,3.88c-0.27,1.38-0.8,2.67-1.23,3.96c4.92-0.65,10.85-1.29,17.4-1.29l-11.01,56.7    c2.34-0.18,4.7-0.46,7.01-0.46c2.3,0,4.56,0.28,6.82,0.46L309.82,100.51z" fill="#ffffff"/>
    <path class="st0" d="M388.48,125.13c2.68-14.29-1.46-32.82-27.74-32.82c-22.96,0-39.21,14.84-42.77,33.19    c-4.06,20.93,7.35,32.92,27.73,32.92C368.28,158.41,385.08,143.11,388.48,125.13 M359.11,97.84c13.83,0,16.72,13.65,14.41,25.54    c-2.97,15.31-12.09,29.5-26.29,29.5c-13.83,0-16.8-12.72-14.47-24.71C336.77,107.51,346.3,97.84,359.11,97.84" fill="#ffffff"/>
    <path class="st0" d="M406.5,129.46c16.59,0,29.26-3.5,32.45-19.91c2.02-10.42-3.89-15.58-16.71-15.58h-22.68l-12.28,63.25    c2.33-0.19,4.7-0.46,7.01-0.46c2.3,0,4.56,0.28,6.82,0.46L406.5,129.46z M412.42,98.94h5.72c4.79,0,7.63,4.89,6.2,12.26    c-1.1,5.62-4.33,10.88-10.64,12.54c-2.03,0.46-4.17,0.56-6.21,0.64L412.42,98.94z" fill="#ffffff"/>
    <path class="st0" d="M436.04,157.21c2.34-0.19,4.7-0.46,7.01-0.46c2.31,0,4.56,0.28,6.83,0.46l5.74-29.6h0.65    c1.34,3.5,3.1,7.75,4,10.23l7.22,19.36c2.8-0.19,5.62-0.46,8.38-0.46c2.86,0,5.57,0.28,8.3,0.46l-2.48-5.71    c-3.87-8.58-7.94-17.06-11.29-25.91c8.93-1.85,15.85-7.56,17.6-16.6c1.21-6.27-0.74-10.42-5.46-13.19    c-3.48-2.03-10.24-1.84-14.58-1.84h-19.63L436.04,157.21z M461.19,98.94c5.63,0,12.68-0.74,12.67,6.92    c-0.01,1.94-0.18,3.32-0.44,4.61c-1.84,9.49-7.53,14.1-17.03,13.18L461.19,98.94z" fill="#ffffff"/>
    <path class="st0" d="M558.66,125.13c2.68-14.29-1.46-32.82-27.74-32.82c-22.96,0-39.2,14.84-42.77,33.19    c-4.07,20.93,7.34,32.92,27.72,32.92C538.46,158.41,555.27,143.11,558.66,125.13 M529.3,97.84c13.83,0,16.71,13.65,14.41,25.54    c-2.98,15.31-12.09,29.5-26.29,29.5c-13.83,0-16.79-12.72-14.47-24.71C506.95,107.51,516.48,97.84,529.3,97.84" fill="#ffffff"/>
    <path class="st0" d="M613.08,145.96c-4.92,3.96-12.13,6.92-17.84,6.92c-14.21,0-19.8-11.07-16.74-26.83    c2.63-13.55,11.65-28.21,26.96-28.21c6,0,11.21,3.5,13.66,8.48h1.29c1.36-3.23,2.52-6.36,3.96-9.5    c-4.77-2.95-11.85-4.52-17.93-4.52c-20.11,0-38.83,10.98-43.5,35.04c-3.67,18.9,8.9,31.07,28.63,31.07    c6.18,0,12.93-1.11,19.03-3.96l3.57-7.93L613.08,145.96z" fill="#ffffff"/>
    <path class="st0" d="M631,93.96l-12.19,62.79h35.13c0.06-1.29,0.06-2.68,0.31-3.96c0.25-1.29,0.79-2.68,1.23-3.97    c-5.77,0.73-12.12,1.2-21.54,1.29l4.54-23.42h9.59c4.15,0,7.85,0.37,11.18,0.83c0.06-1.29,0.06-2.68,0.3-3.96    c0.26-1.29,0.8-2.68,1.23-3.97c-3.49,0.46-7.35,0.84-11.5,0.84h-9.58l3.84-19.83c9.44-0.19,15.57,0.55,21.05,1.29    c0.07-1.29,0.06-2.68,0.31-3.96c0.25-1.29,0.79-2.67,1.23-3.97H631z" fill="#ffffff"/>
    <path class="st0" d="M702.08,105.86c1.53-3.13,3.05-6.18,4.72-9.13c-1.65-1.94-7.07-4.43-13.7-4.43c-14.02,0-23,8.76-25.06,19.36    c-4.31,22.22,24.2,16.87,21.33,31.62c-1.23,6.36-6.93,9.59-12.64,9.59c-6.37,0-10.61-3.79-10.75-10.14h-1.76    c-1.32,3.96-3.09,7.83-4.95,11.71c3.79,2.77,9.01,3.96,14.07,3.96c14.29,0,26.08-8.49,28.37-20.28    c4.1-21.11-24.37-18.81-21.96-31.26c1.02-5.25,4.61-9.03,11.89-9.03c5.26,0,8.15,3.13,9.05,8.02H702.08z" fill="#ffffff"/>
    <path class="st0" d="M745.43,105.86c1.54-3.13,3.04-6.18,4.73-9.13c-1.66-1.94-7.07-4.43-13.71-4.43    c-14.01,0-22.99,8.76-25.05,19.36c-4.32,22.22,24.2,16.87,21.33,31.62c-1.23,6.36-6.94,9.59-12.65,9.59    c-6.36,0-10.61-3.79-10.76-10.14h-1.75c-1.32,3.96-3.09,7.83-4.95,11.71c3.79,2.77,9,3.96,14.07,3.96    c14.29,0,26.08-8.49,28.37-20.28c4.1-21.11-24.38-18.81-21.96-31.26c1.02-5.25,4.61-9.03,11.89-9.03c5.26,0,8.15,3.13,9.05,8.02    H745.43z" fill="#ffffff"/>
    <polygon class="st1" points="69.2,22.59 203.68,22.59 188.01,112.57 53.53,112.57   " fill="#ffffff"/>
    <polygon class="st2" points="53.5,112.57 188.01,112.57 172.32,202.74 37.8,202.74   " fill="#ffffff"/>
    <path class="st2" d="M120.78,112.54c-37.35,0-62.38-30.27-55.87-67.61c0,0,2.55-14.66,3.93-22.54h45.07l-3.62,20.78    c-8.09,44.34-10.32,59.11,11.29,62.93c1.24,0.1,3.22,0,3.22,0c10.83,0,21.15-8.78,23.03-19.61c1.89-10.83-5.33-19.61-16.16-19.61    c0,0-1.99-0.12-3.26,0h45.45c12.44,0,20.71,10.09,18.54,22.54c-2.17,12.45-14.15,23.12-26.6,23.12H120.78z" fill="#ffffff"/>
    <path class="st1" d="M120.78,112.48c-37.35,0-72.93,30.27-79.43,67.61c0,0-2.55,14.66-3.93,22.54H82.5l3.62-20.77    c7.36-44.33,10.27-59.1,33.21-62.93c1.27-0.1,3.22,0,3.22,0c10.83,0,18.08,8.78,16.19,19.61c-1.89,10.83-12.16,19.61-22.99,19.61    c0,0-1.98,0.09-3.26,0h45.45c12.44,0,24.22-10.09,26.39-22.53c2.16-12.45-6.1-23.12-18.55-23.12H120.78z" fill="#ffffff"/>
    <path class="st3" d="M373.69,166.3c0.4-0.4,0.89-0.6,1.46-0.6c0.57,0,1.05,0.2,1.46,0.6c0.4,0.41,0.61,0.89,0.61,1.46    c0,0.57-0.21,1.05-0.61,1.46c-0.4,0.41-0.89,0.61-1.46,0.61c-0.57,0-1.05-0.2-1.46-0.61c-0.4-0.41-0.61-0.89-0.61-1.46    C373.08,167.2,373.29,166.71,373.69,166.3 M373.59,178.56c-0.04-1.34-0.13-2.59-0.27-3.75c0.75,0.14,1.36,0.2,1.82,0.2    c0.46,0,1.07-0.07,1.82-0.2c-0.14,1.16-0.22,2.41-0.27,3.75c-0.03,1.33-0.06,2.61-0.06,3.83v4.21c0,1.22,0.02,2.49,0.06,3.83    c0.04,1.34,0.13,2.55,0.27,3.62c-0.62-0.05-1.23-0.08-1.82-0.08c-0.6,0-1.21,0.03-1.82,0.08c0.14-1.08,0.22-2.29,0.27-3.62    c0.03-1.34,0.06-2.61,0.06-3.83v-4.21C373.65,181.17,373.63,179.89,373.59,178.56" fill="#ffffff"/>
    <path class="st3" d="M383.87,178.56c-0.03-1.34-0.13-2.59-0.26-3.75c0.76,0.14,1.36,0.2,1.82,0.2c0.22,0,0.46-0.02,0.71-0.06    c0.25-0.04,0.56-0.09,0.91-0.14c-0.08,1.08-0.12,2.16-0.12,3.24h0.08c1.43-2.43,3.43-3.65,6.01-3.65c0.67,0,1.33,0.1,1.97,0.3    c0.66,0.2,1.24,0.48,1.76,0.83c0.53,0.35,0.98,0.78,1.35,1.28c0.37,0.5,0.63,1.03,0.77,1.6h0.08c0.65-1.3,1.54-2.29,2.66-2.97    c1.13-0.69,2.42-1.04,3.88-1.04c0.89,0,1.72,0.13,2.48,0.36c0.76,0.25,1.42,0.62,1.97,1.14c0.55,0.51,0.99,1.17,1.3,1.98    c0.31,0.81,0.46,1.78,0.46,2.92c0,0.46-0.01,0.96-0.04,1.5c-0.02,0.54-0.05,1.17-0.08,1.88c-0.03,0.72-0.06,1.53-0.09,2.43    c-0.02,0.9-0.04,1.95-0.04,3.14c0,0.73,0.01,1.43,0.02,2.11c0.02,0.68,0.04,1.41,0.1,2.19c-0.3-0.05-0.6-0.08-0.89-0.08h-0.85    h-0.89c-0.3,0-0.59,0.03-0.89,0.08c0.08-0.68,0.17-2.04,0.26-4.09c0.1-2.05,0.15-4.91,0.15-8.59c0-0.68-0.07-1.31-0.22-1.9    c-0.16-0.59-0.39-1.1-0.72-1.54c-0.32-0.43-0.75-0.78-1.3-1.03c-0.54-0.25-1.22-0.38-2.03-0.38c-0.98,0-1.81,0.19-2.48,0.57    c-0.68,0.38-1.21,0.82-1.59,1.33c-0.22,0.3-0.39,0.59-0.51,0.89c-0.12,0.3-0.22,0.75-0.28,1.35c-0.07,0.61-0.11,1.46-0.14,2.55    c-0.03,1.09-0.04,2.59-0.04,4.51c0,1.16,0.02,2.23,0.06,3.18c0.04,0.95,0.08,2,0.14,3.14c-0.62-0.05-1.2-0.08-1.76-0.08    c-0.57,0-1.16,0.03-1.76,0.08c0.12-1.48,0.2-3,0.25-4.54c0.05-1.54,0.07-3.05,0.07-4.53c0-1.27-0.01-2.26-0.02-2.98    c-0.01-0.72-0.04-1.28-0.1-1.7c-0.05-0.41-0.13-0.76-0.22-1.03c-0.09-0.27-0.22-0.57-0.38-0.89c-0.3-0.51-0.76-0.95-1.39-1.32    c-0.63-0.37-1.28-0.55-1.95-0.55c-1.78,0-3.08,0.58-3.91,1.74c-0.83,1.16-1.25,2.8-1.25,4.9v3.44c0,1.22,0.01,2.49,0.06,3.83    c0.04,1.34,0.13,2.55,0.26,3.62c-0.62-0.05-1.22-0.08-1.83-0.08c-0.59,0-1.2,0.03-1.82,0.08c0.13-1.08,0.23-2.29,0.26-3.62    c0.04-1.34,0.07-2.61,0.07-3.83v-4.21C383.94,181.17,383.92,179.89,383.87,178.56" fill="#ffffff"/>
    <path class="st3" d="M417.12,183.6c-0.01-1.08-0.03-2.16-0.06-3.22c-0.02-1.07-0.06-2.09-0.1-3.06c-0.04-0.97-0.09-1.81-0.15-2.51    c0.76,0.13,1.37,0.2,1.83,0.2c0.46,0,1.06-0.07,1.82-0.2c-0.11,0.7-0.19,1.38-0.24,2.03c-0.05,0.65-0.08,1.29-0.08,1.94h0.08    c0.19-0.43,0.46-0.9,0.81-1.4c0.35-0.5,0.8-0.97,1.36-1.41c0.55-0.44,1.22-0.82,2-1.11c0.78-0.3,1.67-0.45,2.67-0.45    c1.02,0,2.04,0.19,3.03,0.59c1,0.39,1.88,1,2.66,1.8c0.77,0.82,1.39,1.85,1.86,3.1c0.47,1.26,0.71,2.75,0.71,4.48    s-0.25,3.23-0.77,4.49c-0.51,1.27-1.18,2.32-2,3.16c-0.82,0.84-1.76,1.45-2.82,1.85c-1.05,0.39-2.11,0.59-3.15,0.59    c-2.97,0-5.09-1.28-6.36-3.85h-0.08v2.55c0,0.87,0.01,1.83,0.02,2.9c0.02,1.06,0.03,2.12,0.06,3.18c0.03,1.05,0.07,2.06,0.1,3.02    c0.04,0.95,0.09,1.78,0.14,2.45c-0.76-0.13-1.36-0.2-1.82-0.2c-0.46,0-1.07,0.07-1.83,0.2c0.06-0.67,0.11-1.5,0.15-2.45    c0.04-0.95,0.07-1.96,0.1-3.02c0.02-1.06,0.05-2.11,0.06-3.18c0.01-1.07,0.03-2.04,0.03-2.9v-6.56    C417.15,185.68,417.13,184.68,417.12,183.6 M431.26,180.32c-0.34-1.06-0.77-1.9-1.29-2.53c-0.53-0.64-1.13-1.07-1.81-1.32    c-0.67-0.24-1.34-0.36-1.98-0.36c-1.09,0-2.01,0.23-2.78,0.69c-0.77,0.46-1.4,1.08-1.88,1.85c-0.49,0.77-0.84,1.67-1.06,2.71    c-0.21,1.04-0.32,2.14-0.32,3.3c0,5.62,1.97,8.42,5.92,8.42c0.97,0,1.81-0.22,2.53-0.67c0.71-0.44,1.31-1.06,1.78-1.86    c0.47-0.8,0.82-1.73,1.05-2.8c0.22-1.06,0.34-2.2,0.34-3.42C431.76,182.71,431.6,181.37,431.26,180.32" fill="#ffffff"/>
    <path class="st3" d="M448.58,177.69c-0.39-0.13-0.78-0.2-1.19-0.2c-0.65,0-1.23,0.14-1.75,0.44c-0.51,0.3-0.94,0.7-1.29,1.2    c-0.35,0.5-0.62,1.09-0.81,1.78c-0.19,0.69-0.28,1.43-0.28,2.21v4.46c0,1.81,0,3.19,0.02,4.15c0.01,0.96,0.05,1.74,0.14,2.33    c-0.55-0.05-1.09-0.08-1.62-0.08c-0.59,0-1.16,0.03-1.7,0.08c0.08-0.92,0.12-2.17,0.14-3.74c0.01-1.58,0.02-3.52,0.02-5.81v-1.3    c0-1.05-0.01-2.27-0.02-3.64c-0.01-1.38-0.06-2.96-0.14-4.74c0.29,0.06,0.59,0.1,0.85,0.14c0.27,0.04,0.55,0.06,0.85,0.06    c0.24,0,0.5-0.02,0.77-0.06c0.27-0.04,0.55-0.09,0.85-0.14c-0.12,0.97-0.17,1.74-0.18,2.31c-0.02,0.57-0.02,1.11-0.02,1.62    l0.08,0.04c1.59-2.91,3.37-4.37,5.34-4.37c0.24,0,0.45,0.02,0.63,0.04c0.17,0.02,0.4,0.09,0.67,0.2    c-0.13,0.33-0.21,0.82-0.24,1.47c-0.03,0.67-0.04,1.27-0.04,1.81l-0.28,0.2C449.24,177.97,448.98,177.82,448.58,177.69" fill="#ffffff"/>
    <path class="st3" d="M454.3,177.24c1.58-1.89,3.88-2.84,6.91-2.84c1.43,0,2.66,0.22,3.7,0.67c1.04,0.45,1.91,1.04,2.61,1.78    c0.7,0.74,1.22,1.62,1.56,2.61c0.34,1,0.51,2.06,0.51,3.2c0,0.26,0,0.53-0.02,0.78c-0.01,0.26-0.03,0.53-0.06,0.79    c-1.46-0.02-2.91-0.05-4.34-0.08c-1.43-0.02-2.88-0.04-4.33-0.04c-0.89,0-1.78,0.02-2.66,0.04c-0.88,0.03-1.76,0.06-2.65,0.08    c-0.03,0.14-0.04,0.34-0.04,0.61v0.52c0,1.05,0.16,2.04,0.47,2.96c0.31,0.92,0.76,1.71,1.36,2.37c0.59,0.66,1.32,1.18,2.18,1.58    c0.87,0.39,1.86,0.59,3,0.59c0.53,0,1.09-0.07,1.66-0.22c0.57-0.15,1.12-0.35,1.66-0.61c0.54-0.26,1.05-0.56,1.52-0.91    c0.47-0.35,0.88-0.73,1.23-1.13l0.2,0.12l-0.24,1.98c-0.81,0.64-1.82,1.2-3.02,1.66c-1.2,0.46-2.45,0.69-3.75,0.69    c-1.45,0-2.79-0.22-3.99-0.67c-1.2-0.45-2.24-1.09-3.12-1.94c-0.88-0.86-1.56-1.86-2.02-3.02c-0.47-1.16-0.71-2.42-0.71-3.77    C451.93,181.74,452.71,179.13,454.3,177.24 M458.75,176.39c-0.69,0.46-1.25,1.04-1.7,1.72c-0.44,0.69-0.78,1.44-1.01,2.26    c-0.23,0.83-0.37,1.6-0.43,2.33c0.84,0.03,1.71,0.05,2.62,0.08c0.9,0.02,1.78,0.04,2.65,0.04c0.89,0,1.8-0.02,2.71-0.04    c0.92-0.03,1.81-0.05,2.67-0.08c0-0.73-0.06-1.5-0.18-2.31c-0.12-0.81-0.37-1.57-0.73-2.27c-0.36-0.7-0.87-1.28-1.52-1.74    c-0.64-0.46-1.49-0.69-2.55-0.69C460.28,175.7,459.44,175.93,458.75,176.39" fill="#ffffff"/>
    <path class="st3" d="M474.26,191.17c0.28,0.33,0.62,0.63,1.01,0.91c0.4,0.28,0.83,0.52,1.33,0.71c0.51,0.19,1.03,0.29,1.6,0.29    c0.52,0,1.01-0.09,1.48-0.24c0.47-0.16,0.89-0.4,1.26-0.69c0.36-0.3,0.65-0.67,0.87-1.14c0.21-0.46,0.32-0.98,0.32-1.58    c0-0.84-0.24-1.48-0.71-1.92c-0.47-0.44-1.05-0.81-1.76-1.09c-0.7-0.29-1.47-0.53-2.3-0.75c-0.84-0.22-1.62-0.52-2.32-0.91    c-0.71-0.39-1.29-0.92-1.76-1.56c-0.47-0.65-0.71-1.54-0.71-2.67c0-0.89,0.15-1.71,0.45-2.45c0.29-0.74,0.73-1.38,1.29-1.93    c0.56-0.54,1.27-0.96,2.11-1.27c0.83-0.31,1.79-0.47,2.87-0.47c1,0,1.84,0.14,2.53,0.41c0.69,0.27,1.34,0.52,1.96,0.73    c-0.21,0.4-0.42,0.91-0.61,1.5c-0.18,0.59-0.3,1.05-0.36,1.38h-0.49c-0.21-0.65-0.64-1.23-1.25-1.74    c-0.62-0.51-1.39-0.77-2.31-0.77c-0.4,0-0.81,0.06-1.21,0.2c-0.41,0.14-0.77,0.34-1.1,0.61c-0.32,0.27-0.59,0.62-0.81,1.05    c-0.22,0.43-0.33,0.95-0.33,1.54c0,0.86,0.24,1.53,0.71,2c0.47,0.47,1.06,0.84,1.76,1.11c0.7,0.27,1.47,0.51,2.31,0.71    c0.84,0.2,1.6,0.49,2.31,0.85c0.71,0.37,1.29,0.87,1.76,1.52c0.48,0.65,0.71,1.54,0.71,2.67c0,0.78-0.17,1.55-0.51,2.31    c-0.34,0.76-0.82,1.44-1.45,2.05c-0.64,0.6-1.4,1.08-2.29,1.41c-0.89,0.34-1.9,0.51-3.04,0.51c-1.24,0-2.28-0.12-3.12-0.36    c-0.84-0.25-1.53-0.53-2.1-0.85c0.16-0.35,0.33-0.83,0.51-1.43c0.18-0.61,0.26-1.11,0.26-1.52h0.48    C473.77,190.55,473.98,190.84,474.26,191.17" fill="#ffffff"/>
    <path class="st3" d="M488.8,179.81c0.58-1.28,1.34-2.32,2.29-3.12c0.94-0.79,2-1.38,3.18-1.74c1.18-0.36,2.34-0.55,3.5-0.55    c1.18,0,2.37,0.19,3.53,0.55c1.16,0.36,2.21,0.94,3.15,1.74c0.95,0.8,1.71,1.84,2.29,3.12c0.59,1.28,0.87,2.85,0.87,4.68    c0,1.83-0.28,3.39-0.87,4.68c-0.57,1.28-1.34,2.32-2.29,3.12c-0.94,0.8-1.99,1.35-3.15,1.68c-1.16,0.33-2.34,0.49-3.53,0.49    c-1.16,0-2.32-0.16-3.5-0.49c-1.18-0.33-2.23-0.88-3.18-1.68c-0.95-0.8-1.71-1.84-2.29-3.12c-0.58-1.28-0.87-2.84-0.87-4.68    C487.93,182.66,488.22,181.09,488.8,179.81 M491.8,187.77c0.2,1.05,0.54,1.99,1.03,2.81c0.48,0.82,1.13,1.48,1.94,1.96    c0.81,0.49,1.81,0.73,3,0.73c1.18,0,2.19-0.24,2.99-0.73c0.81-0.48,1.46-1.14,1.94-1.96c0.49-0.83,0.84-1.76,1.03-2.81    c0.2-1.06,0.31-2.15,0.31-3.28c0-1.14-0.11-2.23-0.31-3.28c-0.2-1.06-0.54-1.99-1.03-2.82c-0.49-0.82-1.14-1.47-1.94-1.96    c-0.81-0.49-1.81-0.73-2.99-0.73c-1.19,0-2.19,0.24-3,0.73c-0.81,0.49-1.46,1.14-1.94,1.96c-0.49,0.83-0.83,1.76-1.03,2.82    c-0.21,1.05-0.31,2.15-0.31,3.28C491.49,185.62,491.59,186.72,491.8,187.77" fill="#ffffff"/>
    <path class="st3" d="M512.53,191.17c0.28,0.33,0.62,0.63,1.01,0.91c0.39,0.28,0.83,0.52,1.34,0.71c0.5,0.19,1.03,0.29,1.6,0.29    c0.51,0,1.01-0.09,1.48-0.24c0.47-0.16,0.89-0.4,1.25-0.69c0.37-0.3,0.66-0.67,0.87-1.14c0.22-0.46,0.33-0.98,0.33-1.58    c0-0.84-0.23-1.48-0.71-1.92c-0.47-0.44-1.06-0.81-1.76-1.09c-0.7-0.29-1.47-0.53-2.31-0.75c-0.84-0.22-1.61-0.52-2.32-0.91    c-0.7-0.39-1.29-0.92-1.75-1.56c-0.47-0.65-0.71-1.54-0.71-2.67c0-0.89,0.14-1.71,0.44-2.45c0.3-0.74,0.73-1.38,1.3-1.93    c0.57-0.54,1.27-0.96,2.1-1.27c0.83-0.31,1.8-0.47,2.87-0.47c1,0,1.85,0.14,2.53,0.41c0.69,0.27,1.34,0.52,1.97,0.73    c-0.22,0.4-0.42,0.91-0.61,1.5c-0.19,0.59-0.31,1.05-0.36,1.38h-0.48c-0.22-0.65-0.64-1.23-1.26-1.74    c-0.62-0.51-1.4-0.77-2.31-0.77c-0.41,0-0.81,0.06-1.22,0.2c-0.4,0.14-0.76,0.34-1.09,0.61c-0.32,0.27-0.59,0.62-0.81,1.05    c-0.21,0.43-0.32,0.95-0.32,1.54c0,0.86,0.23,1.53,0.71,2c0.47,0.47,1.06,0.84,1.76,1.11c0.7,0.27,1.47,0.51,2.31,0.71    c0.84,0.2,1.61,0.49,2.31,0.85c0.71,0.37,1.29,0.87,1.76,1.52c0.47,0.65,0.71,1.54,0.71,2.67c0,0.78-0.17,1.55-0.5,2.31    c-0.34,0.76-0.83,1.44-1.46,2.05c-0.64,0.6-1.4,1.08-2.3,1.41c-0.88,0.34-1.9,0.51-3.03,0.51c-1.24,0-2.29-0.12-3.12-0.36    c-0.84-0.25-1.54-0.53-2.11-0.85c0.16-0.35,0.34-0.83,0.5-1.43c0.18-0.61,0.26-1.11,0.26-1.52h0.49    C512.04,190.55,512.25,190.84,512.53,191.17" fill="#ffffff"/>
    <polygon class="st4" points="538.09,184.76 538.09,177.27 539.8,177.27 539.8,184.76 547.29,184.76 547.29,186.48 539.8,186.48     539.8,193.97 538.09,193.97 538.09,186.48 530.6,186.48 530.6,184.76   " style="fill: rgb(250, 250, 250);"/>
    <path class="st3" d="M556.62,191.17c0.29,0.33,0.62,0.63,1.01,0.91c0.39,0.28,0.83,0.52,1.34,0.71c0.5,0.19,1.03,0.29,1.6,0.29    c0.51,0,1-0.09,1.48-0.24c0.47-0.16,0.89-0.4,1.25-0.69c0.37-0.3,0.66-0.67,0.87-1.14c0.22-0.46,0.33-0.98,0.33-1.58    c0-0.84-0.23-1.48-0.71-1.92c-0.47-0.44-1.06-0.81-1.76-1.09c-0.7-0.29-1.47-0.53-2.31-0.75c-0.84-0.22-1.6-0.52-2.3-0.91    c-0.71-0.39-1.3-0.92-1.76-1.56c-0.47-0.65-0.71-1.54-0.71-2.67c0-0.89,0.14-1.71,0.44-2.45c0.31-0.74,0.73-1.38,1.3-1.93    c0.57-0.54,1.27-0.96,2.1-1.27c0.83-0.31,1.79-0.47,2.87-0.47c1,0,1.85,0.14,2.53,0.41c0.69,0.27,1.34,0.52,1.96,0.73    c-0.22,0.4-0.42,0.91-0.61,1.5c-0.19,0.59-0.31,1.05-0.37,1.38h-0.48c-0.22-0.65-0.64-1.23-1.26-1.74    c-0.62-0.51-1.38-0.77-2.31-0.77c-0.4,0-0.8,0.06-1.22,0.2c-0.4,0.14-0.76,0.34-1.09,0.61c-0.33,0.27-0.6,0.62-0.81,1.05    c-0.21,0.43-0.32,0.95-0.32,1.54c0,0.86,0.23,1.53,0.71,2c0.47,0.47,1.06,0.84,1.76,1.11c0.7,0.27,1.47,0.51,2.31,0.71    c0.83,0.2,1.61,0.49,2.3,0.85c0.71,0.37,1.29,0.87,1.76,1.52c0.47,0.65,0.71,1.54,0.71,2.67c0,0.78-0.17,1.55-0.5,2.31    c-0.34,0.76-0.83,1.44-1.46,2.05c-0.64,0.6-1.4,1.08-2.29,1.41c-0.89,0.34-1.9,0.51-3.04,0.51c-1.24,0-2.28-0.12-3.12-0.36    c-0.84-0.25-1.53-0.53-2.1-0.85c0.16-0.35,0.33-0.83,0.5-1.43c0.18-0.61,0.26-1.11,0.26-1.52h0.49    C556.12,190.55,556.33,190.84,556.62,191.17" fill="#ffffff"/>
    <path class="st3" d="M571.15,179.81c0.58-1.28,1.34-2.32,2.29-3.12c0.95-0.79,2.01-1.38,3.18-1.74c1.18-0.36,2.34-0.55,3.51-0.55    c1.18,0,2.36,0.19,3.52,0.55c1.15,0.36,2.21,0.94,3.16,1.74c0.94,0.8,1.7,1.84,2.29,3.12c0.59,1.28,0.87,2.85,0.87,4.68    c0,1.83-0.28,3.39-0.87,4.68c-0.58,1.28-1.35,2.32-2.29,3.12c-0.95,0.8-2,1.35-3.16,1.68c-1.16,0.33-2.34,0.49-3.52,0.49    c-1.17,0-2.34-0.16-3.51-0.49c-1.17-0.33-2.23-0.88-3.18-1.68c-0.95-0.8-1.71-1.84-2.29-3.12c-0.58-1.28-0.87-2.84-0.87-4.68    C570.29,182.66,570.57,181.09,571.15,179.81 M574.15,187.77c0.21,1.05,0.55,1.99,1.04,2.81c0.49,0.82,1.14,1.48,1.94,1.96    c0.81,0.49,1.81,0.73,3,0.73c1.18,0,2.18-0.24,2.99-0.73c0.81-0.48,1.46-1.14,1.95-1.96c0.49-0.83,0.83-1.76,1.03-2.81    c0.2-1.06,0.3-2.15,0.3-3.28c0-1.14-0.1-2.23-0.3-3.28c-0.21-1.06-0.54-1.99-1.03-2.82c-0.49-0.82-1.14-1.47-1.95-1.96    c-0.81-0.49-1.81-0.73-2.99-0.73c-1.19,0-2.19,0.24-3,0.73c-0.8,0.49-1.46,1.14-1.94,1.96c-0.48,0.83-0.83,1.76-1.04,2.82    c-0.2,1.05-0.3,2.15-0.3,3.28C573.84,185.62,573.95,186.72,574.15,187.77" fill="#ffffff"/>
    <path class="st3" d="M595.5,172.18c-0.01-1.08-0.03-2.15-0.06-3.2c-0.03-1.05-0.06-2.06-0.1-3.02c-0.05-0.96-0.09-1.77-0.14-2.45    c0.75,0.13,1.36,0.2,1.83,0.2c0.45,0,1.06-0.06,1.82-0.2c-0.06,0.68-0.1,1.5-0.14,2.45c-0.04,0.96-0.08,1.97-0.11,3.02    c-0.03,1.06-0.04,2.12-0.06,3.2c-0.01,1.08-0.02,2.08-0.02,3v7.33c0,0.92,0.01,1.91,0.02,3c0.02,1.08,0.03,2.15,0.06,3.2    c0.03,1.05,0.07,2.05,0.11,2.99c0.04,0.95,0.09,1.73,0.14,2.35c-0.62-0.05-1.23-0.08-1.82-0.08c-0.6,0-1.21,0.03-1.83,0.08    c0.05-0.62,0.1-1.4,0.14-2.35c0.03-0.94,0.07-1.94,0.1-2.99c0.03-1.05,0.05-2.12,0.06-3.2c0.01-1.08,0.02-2.08,0.02-3v-7.33    C595.51,174.26,595.5,173.26,595.5,172.18" fill="#ffffff"/>
    <path class="st3" d="M605.78,184.27c0.04-1.01,0.06-2.02,0.06-3.01c0-0.95,0-1.97-0.02-3.08c-0.01-1.1-0.03-2.23-0.05-3.36    c0.67,0.14,1.24,0.2,1.7,0.2c0.43,0,0.98-0.07,1.66-0.2c-0.14,1.62-0.23,3.4-0.3,5.33c-0.07,1.93-0.1,3.91-0.1,5.93    c0,1.41,0.12,2.47,0.36,3.22c0.24,0.74,0.53,1.3,0.89,1.69c0.38,0.43,0.86,0.78,1.44,1.07c0.58,0.29,1.26,0.43,2.05,0.43    c1.13,0,2.07-0.25,2.83-0.75c0.76-0.5,1.32-1.11,1.66-1.84c0.19-0.46,0.34-0.85,0.45-1.17c0.12-0.33,0.2-0.76,0.27-1.29    c0.06-0.54,0.11-1.27,0.12-2.19c0.01-0.92,0.02-2.17,0.02-3.76v-3.4c0-0.59-0.01-1.16-0.02-1.7c-0.01-0.54-0.04-1.05-0.07-1.54    c0.3,0.06,0.58,0.1,0.85,0.14c0.27,0.04,0.56,0.06,0.86,0.06c0.29,0,0.57-0.02,0.85-0.06c0.27-0.04,0.54-0.09,0.8-0.14    c-0.13,2.11-0.22,4.14-0.24,6.1c-0.03,1.96-0.04,4.03-0.04,6.21c0,1.22,0.01,2.4,0.04,3.57c0.02,1.16,0.06,2.28,0.12,3.36    c-0.54-0.05-1.07-0.08-1.58-0.08c-0.52,0-1.04,0.03-1.58,0.08c0.02-0.24,0.04-0.49,0.06-0.77c0.01-0.27,0.02-0.55,0.02-0.85v-1.74    h-0.08c-0.71,1.29-1.61,2.24-2.72,2.85c-1.11,0.6-2.31,0.91-3.6,0.91c-2.11,0-3.76-0.56-4.96-1.68c-1.21-1.12-1.81-2.73-1.81-4.84    C605.72,186.5,605.73,185.28,605.78,184.27" fill="#ffffff"/>
    <path class="st3" d="M627.74,179.95c0.6-1.26,1.37-2.31,2.33-3.13c0.96-0.82,2.06-1.43,3.3-1.82c1.25-0.39,2.51-0.59,3.81-0.59    c1.49,0,2.82,0.19,3.99,0.55c1.18,0.37,2.02,0.78,2.54,1.24c-0.19,0.41-0.36,0.83-0.51,1.28c-0.15,0.44-0.28,0.91-0.38,1.4h-0.32    c-0.19-0.35-0.45-0.71-0.77-1.08c-0.33-0.36-0.71-0.7-1.15-1.01c-0.45-0.31-0.94-0.56-1.48-0.77c-0.54-0.2-1.13-0.3-1.78-0.3    c-1.22,0-2.26,0.22-3.14,0.67c-0.88,0.45-1.59,1.06-2.14,1.85c-0.55,0.78-0.95,1.7-1.21,2.77c-0.26,1.06-0.39,2.22-0.39,3.46    c0,2.78,0.59,4.88,1.79,6.3c1.19,1.42,2.93,2.12,5.23,2.12c0.53,0,1.09-0.07,1.65-0.22c0.57-0.15,1.13-0.35,1.67-0.61    c0.54-0.26,1.04-0.56,1.51-0.91c0.47-0.35,0.89-0.73,1.24-1.13l0.21,0.12c-0.13,0.64-0.22,1.31-0.25,1.99    c-0.81,0.64-1.82,1.2-3.01,1.66c-1.2,0.46-2.45,0.69-3.75,0.69c-1.16,0-2.33-0.17-3.5-0.51c-1.18-0.34-2.23-0.9-3.18-1.7    c-0.95-0.79-1.71-1.83-2.28-3.1c-0.59-1.27-0.87-2.82-0.87-4.66C626.86,182.74,627.15,181.22,627.74,179.95" fill="#ffffff"/>
    <path class="st3" d="M649.57,166.3c0.4-0.4,0.89-0.6,1.46-0.6c0.56,0,1.05,0.2,1.45,0.6c0.41,0.41,0.61,0.89,0.61,1.46    c0,0.57-0.2,1.05-0.61,1.46c-0.41,0.41-0.89,0.61-1.45,0.61c-0.57,0-1.06-0.2-1.46-0.61c-0.4-0.41-0.61-0.89-0.61-1.46    C648.96,167.2,649.17,166.71,649.57,166.3 M649.47,178.56c-0.04-1.34-0.13-2.59-0.26-3.75c0.76,0.14,1.36,0.2,1.83,0.2    c0.46,0,1.06-0.07,1.82-0.2c-0.13,1.16-0.22,2.41-0.26,3.75c-0.04,1.33-0.07,2.61-0.07,3.83v4.21c0,1.22,0.02,2.49,0.07,3.83    c0.04,1.34,0.13,2.55,0.26,3.62c-0.62-0.05-1.23-0.08-1.82-0.08c-0.6,0-1.21,0.03-1.83,0.08c0.14-1.08,0.22-2.29,0.26-3.62    c0.04-1.34,0.06-2.61,0.06-3.83v-4.21C649.53,181.17,649.51,179.89,649.47,178.56" fill="#ffffff"/>
    <path class="st3" d="M658.95,179.81c0.58-1.28,1.34-2.32,2.29-3.12c0.94-0.79,2-1.38,3.18-1.74c1.17-0.36,2.34-0.55,3.5-0.55    c1.19,0,2.37,0.19,3.53,0.55c1.16,0.36,2.21,0.94,3.16,1.74c0.95,0.8,1.71,1.84,2.29,3.12c0.58,1.28,0.87,2.85,0.87,4.68    c0,1.83-0.29,3.39-0.87,4.68c-0.58,1.28-1.34,2.32-2.29,3.12s-2,1.35-3.16,1.68c-1.16,0.33-2.34,0.49-3.53,0.49    c-1.16,0-2.33-0.16-3.5-0.49c-1.18-0.33-2.24-0.88-3.18-1.68c-0.95-0.8-1.71-1.84-2.29-3.12c-0.58-1.28-0.86-2.84-0.86-4.68    C658.08,182.66,658.37,181.09,658.95,179.81 M661.95,187.77c0.2,1.05,0.55,1.99,1.03,2.81c0.49,0.82,1.13,1.48,1.94,1.96    c0.81,0.49,1.81,0.73,3,0.73c1.19,0,2.19-0.24,3-0.73c0.81-0.48,1.46-1.14,1.94-1.96c0.49-0.83,0.83-1.76,1.03-2.81    c0.21-1.06,0.3-2.15,0.3-3.28c0-1.14-0.1-2.23-0.3-3.28c-0.2-1.06-0.54-1.99-1.03-2.82c-0.48-0.82-1.13-1.47-1.94-1.96    c-0.81-0.49-1.81-0.73-3-0.73c-1.19,0-2.19,0.24-3,0.73c-0.81,0.49-1.45,1.14-1.94,1.96c-0.49,0.83-0.83,1.76-1.03,2.82    c-0.2,1.05-0.3,2.15-0.3,3.28C661.64,185.62,661.75,186.72,661.95,187.77" fill="#ffffff"/>
    <path class="st3" d="M694.28,178.07c-0.78-1.04-1.86-1.56-3.24-1.56c-1.89,0-3.27,0.58-4.14,1.74c-0.88,1.16-1.32,2.79-1.32,4.9    v3.44c0,1.22,0.02,2.49,0.06,3.83c0.04,1.33,0.13,2.55,0.27,3.62c-0.62-0.05-1.23-0.08-1.83-0.08c-0.59,0-1.2,0.03-1.83,0.08    c0.14-1.08,0.22-2.29,0.26-3.62c0.04-1.34,0.07-2.61,0.07-3.83v-4.21c0-1.21-0.02-2.49-0.07-3.83c-0.04-1.34-0.12-2.59-0.26-3.75    c0.76,0.14,1.36,0.2,1.83,0.2c0.21,0,0.45-0.02,0.71-0.06c0.25-0.04,0.56-0.09,0.91-0.14c-0.08,1.08-0.12,2.16-0.12,3.24h0.08    c0.76-1.16,1.66-2.06,2.72-2.69c1.05-0.64,2.31-0.96,3.78-0.96c0.76,0,1.52,0.11,2.29,0.32c0.77,0.22,1.46,0.59,2.09,1.12    c0.62,0.52,1.13,1.24,1.53,2.15c0.39,0.9,0.58,2.05,0.58,3.46c0,1.16-0.02,2.35-0.08,3.59c-0.05,1.23-0.08,2.53-0.08,3.9v2.63    c0,0.43,0.01,0.86,0.03,1.28c0,0.41,0.03,0.81,0.05,1.19c-0.55-0.05-1.12-0.08-1.72-0.08c-0.58,0-1.14,0.03-1.68,0.08    c0.06-1.4,0.11-2.85,0.19-4.33c0.06-1.48,0.1-3.01,0.1-4.57v-2.47C695.46,180.64,695.06,179.11,694.28,178.07" fill="#ffffff"/>
    <path class="st3" d="M705.47,177.24c1.59-1.89,3.88-2.84,6.9-2.84c1.44,0,2.67,0.22,3.71,0.67c1.04,0.45,1.91,1.04,2.61,1.78    c0.71,0.74,1.23,1.62,1.56,2.61c0.33,1,0.5,2.06,0.5,3.2c0,0.26,0,0.53-0.02,0.78c-0.01,0.26-0.03,0.53-0.06,0.79    c-1.46-0.02-2.9-0.05-4.33-0.08c-1.44-0.02-2.88-0.04-4.34-0.04c-0.89,0-1.78,0.02-2.65,0.04c-0.88,0.03-1.76,0.06-2.66,0.08    c-0.02,0.14-0.04,0.34-0.04,0.61v0.52c0,1.05,0.16,2.04,0.47,2.96c0.31,0.92,0.76,1.71,1.36,2.37c0.59,0.66,1.32,1.18,2.18,1.58    c0.86,0.39,1.86,0.59,3,0.59c0.54,0,1.09-0.07,1.66-0.22c0.56-0.15,1.12-0.35,1.66-0.61c0.54-0.26,1.05-0.56,1.52-0.91    c0.47-0.35,0.88-0.73,1.23-1.13l0.2,0.12l-0.25,1.98c-0.8,0.64-1.81,1.2-3.01,1.66c-1.2,0.46-2.45,0.69-3.74,0.69    c-1.46,0-2.79-0.22-3.99-0.67c-1.21-0.45-2.24-1.09-3.12-1.94c-0.88-0.86-1.55-1.86-2.02-3.02c-0.47-1.16-0.71-2.42-0.71-3.77    C703.11,181.74,703.91,179.13,705.47,177.24 M709.93,176.39c-0.69,0.46-1.25,1.04-1.7,1.72c-0.44,0.69-0.79,1.44-1.01,2.26    c-0.23,0.83-0.38,1.6-0.43,2.33c0.83,0.03,1.7,0.05,2.61,0.08c0.9,0.02,1.79,0.04,2.65,0.04c0.89,0,1.8-0.02,2.71-0.04    c0.92-0.03,1.81-0.05,2.67-0.08c0-0.73-0.06-1.5-0.18-2.31c-0.12-0.81-0.36-1.57-0.73-2.27c-0.37-0.7-0.87-1.28-1.51-1.74    c-0.65-0.46-1.5-0.69-2.55-0.69C711.47,175.7,710.62,175.93,709.93,176.39" fill="#ffffff"/>
    <path class="st3" d="M725.45,191.17c0.28,0.33,0.62,0.63,1.01,0.91c0.39,0.28,0.84,0.52,1.33,0.71c0.5,0.19,1.03,0.29,1.6,0.29    c0.51,0,1-0.09,1.48-0.24c0.47-0.16,0.9-0.4,1.26-0.69c0.36-0.3,0.65-0.67,0.87-1.14c0.21-0.46,0.33-0.98,0.33-1.58    c0-0.84-0.24-1.48-0.71-1.92c-0.47-0.44-1.07-0.81-1.76-1.09c-0.71-0.29-1.47-0.53-2.31-0.75c-0.83-0.22-1.61-0.52-2.31-0.91    c-0.7-0.39-1.29-0.92-1.76-1.56c-0.47-0.65-0.71-1.54-0.71-2.67c0-0.89,0.15-1.71,0.45-2.45c0.3-0.74,0.73-1.38,1.29-1.93    c0.57-0.54,1.27-0.96,2.11-1.27c0.84-0.31,1.79-0.47,2.87-0.47c1,0,1.84,0.14,2.54,0.41c0.69,0.27,1.34,0.52,1.96,0.73    c-0.21,0.4-0.42,0.91-0.6,1.5c-0.19,0.59-0.32,1.05-0.37,1.38h-0.49c-0.22-0.65-0.63-1.23-1.25-1.74    c-0.62-0.51-1.39-0.77-2.31-0.77c-0.41,0-0.81,0.06-1.22,0.2c-0.41,0.14-0.77,0.34-1.09,0.61c-0.33,0.27-0.6,0.62-0.81,1.05    c-0.22,0.43-0.32,0.95-0.32,1.54c0,0.86,0.23,1.53,0.71,2c0.47,0.47,1.06,0.84,1.76,1.11c0.7,0.27,1.47,0.51,2.31,0.71    c0.84,0.2,1.61,0.49,2.31,0.85c0.71,0.37,1.29,0.87,1.76,1.52c0.47,0.65,0.71,1.54,0.71,2.67c0,0.78-0.16,1.55-0.5,2.31    c-0.34,0.76-0.82,1.44-1.46,2.05c-0.63,0.6-1.4,1.08-2.29,1.41c-0.89,0.34-1.9,0.51-3.04,0.51c-1.24,0-2.28-0.12-3.11-0.36    c-0.84-0.25-1.54-0.53-2.11-0.85c0.16-0.35,0.33-0.83,0.51-1.43c0.17-0.61,0.26-1.11,0.26-1.52h0.49    C724.95,190.55,725.16,190.84,725.45,191.17" fill="#ffffff"/>
  </g>
</svg>